Coordinates
version=1
nRows=19
nColumns=36
inDegrees=yes

Units are S.I. units (second, meters, Newtons, ...)
If the header above contains a line with 'inDegrees', this indicates whether rotational values are in degrees (yes) or radians (no).

endheader
time	pelvis_tilt	pelvis_list	pelvis_rotation	pelvis_tx	pelvis_ty	pelvis_tz	hip_flexion_r	hip_adduction_r	hip_rotation_r	knee_angle_r	knee_angle_r_beta	ankle_angle_r	subtalar_angle_r	mtp_angle_r	hip_flexion_l	hip_adduction_l	hip_rotation_l	knee_angle_l	knee_angle_l_beta	ankle_angle_l	subtalar_angle_l	mtp_angle_l	lumbar_extension	lumbar_bending	lumbar_rotation	arm_flex_r	arm_add_r	arm_rot_r	elbow_flex_r	pro_sup_r	arm_flex_l	arm_add_l	arm_rot_l	elbow_flex_l	pro_sup_l
      3.39583330	    -19.23987819	     -1.53527872	      2.18730291	      0.13089461	      0.45602232	     -0.08139735	    118.35914096	    -25.46149828	     14.89031550	    137.34046937	      2.39704339	     44.38866659	     25.85552625	     -7.49999987	    119.90178624	    -19.79042974	     16.07404069	    139.08476678	      2.42748712	     36.74561749	     29.03984689	     -7.49999987	    -42.82223835	      2.14180876	     -1.14953857	     98.99308634	     -7.80157681	     22.29480592	    115.51853617	     99.30667128	    103.65060104	     -1.00987547	     32.54751990	    110.11010035	     94.59980835
      3.40000000	    -19.04819293	     -1.71191936	      2.03799722	      0.12697006	      0.45175431	     -0.08063950	    118.02765545	    -25.38307978	     14.68716178	    137.42010247	      2.39843325	     44.47005068	     25.82726691	     -7.49999987	    119.90064396	    -19.59351562	     16.54178744	    139.38512102	      2.43272929	     36.92515229	     29.23441197	     -7.49999987	    -43.08706451	      2.22889996	     -1.06239700	     99.54804477	     -7.82746303	     22.34278563	    114.97215906	     97.20924405	    104.24607444	     -0.97953511	     32.54126888	    109.76168999	     92.88182209
      3.40416670	    -19.34316599	     -1.68859891	      2.01293029	      0.13006513	      0.45564145	     -0.07768775	    118.08405194	    -25.14382737	     14.59145402	    137.49829909	      2.39979804	     44.65008217	     25.31948127	     -7.49999987	    119.90098174	    -19.62153644	     16.69492716	    139.34099806	      2.43195920	     36.95721974	     29.23940749	     -7.49999987	    -42.63598843	      2.17497536	     -1.00238588	     98.87346900	     -7.59062952	     22.02018703	    114.77014661	    102.76675259	    103.60905279	     -1.04458361	     32.19644337	    109.86595428	     97.42343588
      3.40833330	    -19.61301460	     -1.78414852	      1.98957008	      0.13437959	      0.45742194	     -0.08245890	    117.90528677	    -25.07926965	     14.36670534	    137.37424834	      2.39763294	     44.74173065	     24.69710346	     -7.49999987	    119.90123630	    -19.38719789	     16.77008293	    139.33630042	      2.43187721	     37.11139918	     29.17229162	     -7.49999987	    -42.37663655	      2.38219245	     -0.87753918	     98.50741447	     -7.69797529	     22.26071987	    114.77257767	    101.33734088	    103.24964308	     -1.09388821	     32.32991448	    109.97172303	     96.12562058
      3.41250000	    -19.90064236	     -1.94326252	      1.96275560	      0.13466895	      0.45741066	     -0.08304637	    117.71331260	    -25.06375309	     14.02326483	    137.12386576	      2.39326294	     44.93168942	     24.40031518	     -7.49999987	    119.90016139	    -19.07446441	     16.77223168	    139.27904460	      2.43087791	     37.27365256	     28.85519968	     -7.49999987	    -42.08744106	      2.57895166	     -0.72313902	     98.28355528	     -7.80997249	     22.35077412	    114.81667734	     99.75698764	    103.00561820	     -1.06512032	     32.40067180	    109.94148623	     94.80305348
      3.41666670	    -20.31965574	     -2.13469655	      1.89996311	      0.13696603	      0.46198958	     -0.08111504	    117.40577971	    -24.95110676	     13.50268038	    136.71912466	      2.38619888	     45.07336510	     24.07659975	     -7.49999987	    119.89761796	    -18.88894806	     16.88773382	    139.08756057	      2.42753588	     37.39842338	     28.73007296	     -7.49999987	    -41.75316073	      2.72947268	     -0.49858266	     97.91157031	     -7.92015531	     22.59104318	    114.81355649	     98.41239092	    102.75145178	     -1.19239797	     32.66186949	    110.01302513	     93.61917737
      3.42083330	    -20.65006080	     -2.26789791	      1.79710014	      0.13833792	      0.46225824	     -0.07830886	    117.18766316	    -24.69740601	     12.99647833	    136.45759279	      2.38163428	     45.14720932	     23.61088091	     -7.49999987	    119.89586180	    -18.82851856	     17.12728913	    138.91616202	      2.42454441	     37.44684358	     28.50535832	     -7.49999987	    -41.35615707	      2.76194954	     -0.24193888	     97.48110238	     -7.95139965	     22.85857875	    114.89302934	     96.63123873	    102.42147899	     -1.48511993	     32.91112051	    110.23325305	     92.12892144
      3.42500000	    -20.98267400	     -2.26903812	      1.72599338	      0.13699770	      0.46302225	     -0.07677291	    117.21540098	    -24.32149183	     12.62294415	    136.28728630	      2.37866187	     45.06464618	     22.88678852	     -7.49999987	    119.89318491	    -18.78633182	     17.11023682	    138.62114274	      2.41939535	     37.46068832	     28.16526457	     -7.49999987	    -40.95001341	      2.66615809	     -0.23234250	     97.38398202	     -7.81426766	     22.97302268	    114.67791461	     96.33921058	    102.21582143	     -1.79140137	     32.91803832	    110.12510409	     91.94225040
      3.42916670	    -21.08195067	     -2.29561850	      1.69426479	      0.13615625	      0.46274216	     -0.07541385	    117.14900119	    -23.98036354	     12.26037355	    136.22352270	      2.37754899	     45.00720924	     22.28638021	     -7.49999987	    119.88958554	    -18.62791045	     17.25484317	    138.42579760	      2.41598594	     37.44212138	     27.79700444	     -7.49999987	    -40.83092427	      2.69627110	     -0.24840390	     97.73589798	     -7.45918726	     22.79186229	    114.01840032	    102.17137417	    102.48712859	     -2.19094744	     32.55978446	    109.91586590	     97.01046836
      3.43333330	    -21.36807929	     -2.37735831	      1.65173133	      0.13945581	      0.46661600	     -0.07869015	    117.02300034	    -23.75840645	     11.77784001	    135.96583424	      2.37305148	     44.97176238	     21.78200271	     -7.49999987	    119.88596744	    -18.38790332	     17.17391267	    138.26616478	      2.41319982	     37.35127868	     27.33271777	     -7.49999987	    -40.57972761	      2.76469689	     -0.14019599	     97.58296798	     -7.60204111	     22.75701021	    113.94701272	    101.95087157	    102.48259946	     -2.34845767	     32.72414691	    109.71224170	     96.84212492
      3.43750000	    -21.95707967	     -2.52852775	      1.45925038	      0.14197610	      0.47210623	     -0.07399470	    116.76755145	    -23.28638045	     10.94088102	    135.46212032	      2.36426001	     44.94192864	     21.10594918	     -7.49999987	    119.87956802	    -18.46484073	     17.20333206	    137.76650941	      2.40447919	     37.30941775	     26.80242573	     -7.49999987	    -40.02848509	      2.73588873	     -0.00979900	     97.16170511	     -7.39970206	     23.06678072	    113.81066612	    102.10913847	    102.16687490	     -2.86037864	     32.83522264	    109.99988826	     96.92286639
      3.44166670	    -22.82643762	     -2.69674054	      1.23338434	      0.14543578	      0.47939108	     -0.07910792	    116.38658767	    -22.98984788	     10.03479967	    134.53777460	      2.34812714	     44.79755318	     20.31251792	     -7.49999987	    119.87053693	    -18.38588988	     16.79094097	    137.06125325	      2.39217015	     37.31110015	     26.21183477	     -7.49999987	    -39.26721280	      2.90303509	      0.30844869	     96.38970657	     -7.71156527	     23.53100330	    114.16713364	     99.58770747	    101.35142744	     -2.96595373	     33.11525935	    110.28921791	     94.92732097
      3.44583330	    -23.61070405	     -2.87410590	      1.10982927	      0.14482761	      0.48094904	     -0.07618426	    116.13377435	    -22.80947172	      9.25859194	    133.75989620	      2.33455060	     44.67669534	     19.75943347	     -7.49999987	    119.85837304	    -18.20644996	     16.47984480	    136.37389649	      2.38017351	     37.33786006	     25.29694257	     -7.49999987	    -38.49096192	      3.07303538	      0.52074055	     95.79932328	     -7.72420920	     23.71422227	    114.27130318	    101.94708147	    100.70965103	     -3.30588269	     33.13444171	    110.55391065	     96.52608573
      3.45000000	    -24.16153880	     -3.10918343	      0.86293327	      0.14359308	      0.48448121	     -0.07145883	    115.67739425	    -22.29383334	      8.14456078	    133.02535982	      2.32173052	     44.60212549	     18.80862941	     -7.49999987	    119.84570008	    -18.29357223	     16.61459002	    135.72210520	      2.36879760	     37.29127549	     25.06580422	     -7.49999987	    -38.09049693	      3.11456486	      0.83692612	     95.64623538	     -7.58891359	     23.94610466	    114.08073995	    102.40979214	    100.49470549	     -3.78574230	     33.03041269	    110.70148765	     97.60011229
      3.45416670	    -24.56530248	     -3.25351844	      0.69224935	      0.14408282	      0.48729721	     -0.07087462	    115.29383614	    -21.88340982	      7.26505014	    132.45532598	      2.31178155	     44.61876595	     18.04951167	     -7.49999987	    119.83260910	    -18.25339289	     16.62067306	    135.22044025	      2.36004190	     37.22214676	     24.65187907	     -7.49999987	    -37.83176344	      3.10093558	      1.10484971	     95.64800281	     -7.68519620	     24.09151987	    113.95102912	    102.49200096	    100.44098983	     -4.11973584	     33.03466448	    110.70038913	     97.68915552
      3.45833330	    -25.05506278	     -3.41305217	      0.59696398	      0.14624855	      0.49128667	     -0.06870889	    114.98260483	    -21.42726921	      6.48750390	    131.92496117	      2.30252494	     44.66242740	     17.39079561	     -7.49999987	    119.81766435	    -18.36901974	     16.71245357	    134.66348887	      2.35032126	     37.16372065	     24.30939548	     -7.49999987	    -37.43730180	      2.99321800	      1.23804109	     95.40259725	     -7.77421180	     24.19460573	    113.91383061	    102.51141632	    100.43674272	     -4.41639921	     33.27519212	    110.69363165	     97.72789800
      3.46250000	    -25.60957127	     -3.65064897	      0.43713830	      0.14649653	      0.49890555	     -0.06761199	    114.45851945	    -20.96066653	      5.44686901	    131.07718742	      2.28772849	     44.65145391	     16.83190650	     -7.49999987	    119.78877879	    -18.43810291	     16.59226221	    133.93396859	      2.33758873	     36.83361451	     23.84996158	     -7.49999987	    -37.15306134	      2.95221203	      1.37018543	     95.19559894	     -7.99396078	     24.76266839	    113.87640024	     96.57575193	    100.64450170	     -4.82301106	     33.99608887	    110.70763312	     92.41304812
      3.46666670	    -26.19159795	     -3.83188104	      0.24221282	      0.14671262	      0.50245455	     -0.06681320	    114.17605842	    -20.55172547	      4.60214403	    130.33829357	      2.27483236	     44.40796748	     15.88466669	     -7.49999987	    119.76681753	    -18.50066097	     16.45313895	    133.26890034	      2.32598110	     36.71076313	     23.23268619	     -7.49999987	    -36.71203180	      2.80633208	      1.49016353	     94.79647400	     -8.19970588	     24.26012727	    114.01080430	    102.85805967	    100.53250457	     -4.91902330	     33.67010310	    110.57727815	     97.72301590
      3.47083330	    -26.70359609	     -4.01441159	      0.00371375	      0.14714889	      0.50671373	     -0.06420899	    113.78403371	    -20.07076842	      3.72092122	    129.58620574	      2.26170596	     44.29912711	     15.25506449	     -7.49999987	    119.73899327	    -18.66449444	     16.40435569	    132.66034015	      2.31535972	     36.51831692	     22.55340548	     -7.49999987	    -36.34314541	      2.62057788	      1.63337236	     94.55006137	     -8.50968616	     24.28570381	    114.00533731	    103.05825257	    100.56448047	     -5.16808235	     33.95495631	    110.40743867	     97.93195209
